<svg width="265" height="240" viewBox="0 0 265 240" fill="none" xmlns="http://www.w3.org/2000/svg">
<g clip-path="url(#clip0_76_189)">
<path d="M170.812 224.509C170.803 224.509 170.795 224.513 170.786 224.514C166.666 225.643 162.569 226.879 158.343 227.486C142.43 229.901 124.526 229.224 110.63 220.453C109.858 219.792 111.393 220.07 111.788 220.144C123.149 221.867 143.236 225.981 149.401 214.823C149.473 214.692 149.41 214.522 149.266 214.483C149.104 214.438 148.859 214.467 148.55 214.567C148.279 214.652 147.963 214.787 147.635 214.938C139.212 219.041 126.361 220.513 118.416 217.968C117.08 217.457 119.781 217.5 119.95 217.464C125.436 217.158 130.613 215.525 135.553 213.328C137.126 212.601 137.39 210.516 135.79 209.767C134.473 209.06 132.759 209.229 131.328 209.51C118.694 212.665 108.125 218.38 98.1716 213.18C98.1647 213.176 98.1578 213.173 98.1509 213.171C65.8316 200.43 56.8823 194.066 42.2113 162.544C41.4795 161.016 40.2713 160.014 40.4077 162.363C40.4077 162.371 40.4077 162.38 40.4111 162.389C41.4381 169.41 46.4159 174.932 49.4001 181.237C49.4018 181.242 49.4053 181.247 49.407 181.252C49.5227 181.556 49.7695 182.081 49.8023 182.459C49.8213 182.666 49.5779 182.795 49.4191 182.661C41.8178 176.335 29.6564 157.81 28.5345 148.135C28.5345 148.128 28.5345 148.123 28.5345 148.116C27.9546 138.344 36.8418 131.547 38.0672 122.095C38.535 119.765 38.2899 107.476 33.0428 111.862C23.0269 119.781 24.6424 129.501 25.5917 141.369C25.6193 141.908 25.9006 144.506 24.9997 143.574C16.2333 125.047 17.0998 108.201 27.5766 90.4284C27.5835 90.4163 27.5921 90.4042 27.6008 90.3938C30.5229 86.8331 35.5973 86.8538 38.2691 82.3697C41.2931 77.2676 39.8588 71.2922 33.1257 74.7805C33.117 74.7856 33.1067 74.7908 33.0981 74.796C26.0974 79.4165 21.8773 95.9913 19.4955 104.62C19.3332 105.063 19.2038 105.094 19.1123 104.661C17.8264 86.2791 26.8275 69.5093 34.0767 53.1468C34.0905 53.1175 34.1078 53.0898 34.1319 53.0691C36.5828 50.7494 40.0849 53.3608 42.2269 48.2985C43.3229 45.5472 42.5013 41.7086 40.1332 40.2277C35.9218 37.7768 30.6143 42.4266 31.2167 46.9073C31.4394 48.6471 32.2765 50.3783 31.7483 52.1423C31.7466 52.1492 31.7432 52.1561 31.7414 52.163C29.0402 59.35 25.3656 66.1971 22.6765 73.3841C21.9498 75.1395 21.917 73.2875 22.0016 72.5125C22.1639 68.5738 23.5567 64.3192 21.7168 60.5686C21.073 59.1947 19.8441 57.6154 18.56 57.5308C18.5427 57.5308 18.5237 57.5308 18.5065 57.5308C14.8767 57.9468 13.6961 64.0517 13.9602 67.262C14.0689 70.1703 14.6868 72.9906 15.9675 75.5071C16.9168 77.3608 18.308 79.2353 18.5168 81.3479C18.6635 82.6044 18.4771 83.8316 18.2752 85.0726C16.8478 93.2348 16.6096 101.597 15.9261 109.872C15.6776 114.881 14.5729 107.336 14.1121 106.214C14.1086 106.204 14.1052 106.195 14.1035 106.187C13.1697 102.457 12.2221 98.6562 12.1945 94.7951C12.0599 92.0991 13.1369 89.6448 12.878 86.897C12.5345 83.9282 10.629 80.4797 7.38414 80.1725C3.49374 79.8359 2.47713 84.4926 3.46095 87.4579C4.38263 90.7304 6.99234 92.7326 9.0014 96.4676C10.4789 99.155 11.2003 102.329 11.5731 105.332C12.1703 110.462 14.5746 115.307 15.7104 120.302C16.0228 121.698 16.1936 123.136 16.3645 124.562C17.0238 133.038 21.1127 140.701 23.9088 148.479L23.9037 148.489C23.4532 148.684 22.7283 147.531 22.3693 147.171C22.3624 147.164 22.3572 147.158 22.352 147.152C19.9598 144.033 17.6832 140.919 16.4042 137.196C15.0217 132.7 13.7444 127.877 10.7826 124.166C8.85642 121.764 6.02923 119.463 2.75674 119.304C2.74293 119.304 2.72912 119.304 2.71532 119.304C-0.980046 119.622 -0.0186645 125.532 0.587161 128.172C2.27519 135.07 8.06419 139.297 13.5321 143.206C23.8191 150.103 30.4469 160.866 36.2566 171.561C37.2111 173.528 35.9598 173.002 34.957 172.097C29.779 167.48 26.6532 160.492 20.4241 157.174C17.5347 155.624 14.0413 155.127 10.9742 156.315C5.66332 158.305 11.1934 163.939 13.9084 166.098C18.4858 169.526 24.7753 169.586 29.7168 172.113C29.7237 172.116 29.7306 172.12 29.7375 172.125C45.2474 181.713 57.4364 195.826 72.9721 205.382C73.7108 206.251 71.6551 205.849 71.1166 205.613C71.1097 205.609 71.1045 205.608 71.0994 205.606C64.3869 203.505 57.281 198.445 50.8931 202.347C43.5731 206.861 52.5846 211.897 57.3414 212.997C63.3065 214.531 68.9488 212.757 74.2148 209.838C75.3229 209.25 76.5294 208.607 77.7496 208.452C77.7583 208.452 77.7686 208.45 77.7772 208.45C81.2189 208.297 84.2981 210.534 87.4808 211.566C87.486 211.568 87.4912 211.569 87.4963 211.571C95.4998 214.876 77.023 212.948 73.4657 217.134C73.4588 217.143 73.4502 217.151 73.4398 217.158C70.3175 219.661 68.8038 224.518 73.5089 226.15C86.2467 230.586 91.3678 214.797 95.3807 216.285C95.4152 216.297 95.4463 216.317 95.4705 216.343C96.9048 217.788 96.6424 220.567 97.1136 222.464C97.1136 222.469 97.1153 222.474 97.1171 222.479C98.0456 228.826 101.952 235.046 108.12 237.321C108.134 237.326 108.148 237.33 108.162 237.333C112.623 238.265 113.419 231.708 111.312 228.876C111.3 228.86 111.291 228.843 111.284 228.824C110.668 227.117 104.202 221.509 106.097 221.166C108.103 221.506 109.75 223.522 111.386 224.652C113.428 226.268 115.651 227.685 117.379 229.618C120.239 232.804 121.69 237.371 126.033 238.971C126.04 238.973 126.045 238.976 126.052 238.98C129.714 240.853 135.218 240.44 131.675 235.272C130.256 233.395 128.228 232.312 126.136 231.377C125.296 231.03 123.264 230.12 122.96 229.699C122.7 229.224 123.927 229.499 124.403 229.609C140.246 233.943 156.453 231.755 172.239 227.946C174.278 227.536 177.307 226.568 177.485 224.259C177.486 224.233 177.485 224.205 177.48 224.181C177.039 222.229 172.681 224.245 170.819 224.513L170.812 224.509Z" fill="black"/>
<path d="M80.41 184.095C77.9039 179.542 73.4197 174.605 68.7578 172.645C66.6348 171.844 64.8864 172.365 64.1062 174.531C63.8025 175.348 63.6644 176.211 63.5988 177.129C62.8946 192.494 76.8735 198.932 89.1108 204.793C89.6614 205.074 90.6348 205.482 91.0819 205.299L91.106 205.288C91.4581 205.145 91.4737 204.652 91.2424 204.001C91.2389 203.99 91.2338 203.98 91.2303 203.972C87.8974 197.225 84.1554 190.619 80.41 184.095Z" fill="black"/>
<path d="M44.8252 36.876C45.0513 36.9606 45.2705 37.0158 45.5535 36.9416C46.042 36.8156 46.9119 35.3467 46.9119 35.3467C50.2655 29.8339 52.8631 34.8652 56.7535 30.3811C61.7209 24.6576 53.4068 17.5327 48.3255 22.8643C44.7492 26.6167 47.7663 29.3075 46.8912 31.0732C46.3993 32.0656 45.9281 33.0667 45.3447 34.0039C45.0961 34.4354 44.6318 35.1379 44.3591 35.6954C44.1365 36.1493 44.3488 36.6999 44.8234 36.876H44.8252Z" fill="black"/>
<path d="M72.8192 12.8605L73.9843 12.2702C73.9843 12.2702 73.9981 12.2633 74.0032 12.2616C75.6947 11.6437 75.6429 11.7904 76.1435 11.8629C77.2533 12.0269 78.0283 12.4169 79.0242 12.6137C79.3797 12.6896 79.7474 12.7293 80.1253 12.7293C81.6563 12.7466 82.8317 12.2133 83.6585 11.3779C84.7389 10.4096 85.419 9.00291 85.419 7.43743C85.419 4.51359 83.0492 2.1438 80.1253 2.1438C77.2015 2.1438 74.8317 4.51359 74.8317 7.43743C74.8317 7.68425 74.8507 7.92762 74.8835 8.1658C74.8645 8.5835 74.8455 8.96839 74.773 9.30151C74.6988 9.64153 74.5159 10.0074 73.3974 10.8843C72.8917 11.2812 72.7467 11.3848 72.3204 11.7421C72.039 11.9768 71.9786 12.3841 72.1806 12.6896C72.3187 12.9002 72.5914 12.9744 72.8175 12.864L72.8192 12.8605Z" fill="black"/>
<path d="M58.1974 22.4295C58.4391 22.5538 58.8102 22.5175 59.0225 22.3484C60.4947 21.1764 61.2421 20.4722 62.2967 19.7335C63.2978 19.0345 64.1038 18.0558 65.2827 17.7089C66.4287 17.4103 67.5213 18.0282 68.7916 17.9367C70.4071 17.8884 71.6827 16.2729 71.403 14.6936C71.0924 12.5223 67.8648 11.1622 66.1715 12.3687C64.3731 13.6476 64.827 14.6004 64.1228 15.6636C63.2253 17.3395 59.9372 19.0034 57.9662 21.3076C57.6607 21.6649 57.778 22.2172 58.1974 22.433V22.4295Z" fill="black"/>
<path d="M32.03 180.812C29.5031 180.346 27.6805 182.423 27.9325 184.87C28.0481 186.855 29.5825 188.576 31.6761 188.493H31.7296C36.2604 188.502 36.345 181.577 32.03 180.812Z" fill="black"/>
<path d="M37.2261 145.277C37.3141 147.252 38.9366 148.804 40.9784 148.766H41.0337C45.5264 148.928 45.8423 142.179 41.4634 141.43C39.0246 140.978 37.0155 142.825 37.2261 145.277Z" fill="black"/>
<path d="M44.3606 151.401C44.3606 151.401 44.345 151.41 44.3381 151.415C41.1813 153.407 41.309 158.545 45.6119 158.319H45.6706C47.7504 158.322 49.3021 156.828 49.2883 154.831C49.4091 152.285 46.7442 150.102 44.3606 151.401Z" fill="black"/>
<path d="M98.9873 4.14952C99.9555 4.3273 100.989 3.34693 101.279 2.47358L101.293 2.42352C101.578 1.3068 100.601 -0.0929832 99.4067 0.00539867C98.2589 0.0813426 97.0697 1.36031 97.2526 2.51673C97.4149 3.31759 98.233 3.97002 98.9873 4.14952Z" fill="black"/>
<path d="M93.8381 5.06391C94.5475 5.19508 95.3035 4.47534 95.5158 3.83672L95.5262 3.80047C95.735 2.98235 95.0187 1.95883 94.1454 2.0296C93.3048 2.08483 92.4349 3.02205 92.5695 3.86779C92.6886 4.45463 93.2875 4.93273 93.8399 5.06391H93.8381Z" fill="black"/>
<path d="M130.404 125.893C130.29 125.912 130.205 126.01 130.205 126.126V128.117C130.205 128.247 130.31 128.352 130.44 128.352H161.08C161.209 128.352 161.314 128.247 161.314 128.117V125.989C161.314 125.867 161.22 125.765 161.097 125.755C153.537 125.125 151.561 122.939 147.353 112.418L141.909 99.7006C141.823 99.6488 141.761 99.6109 141.674 99.5591C140.149 99.6834 138.623 99.7576 137.1 99.9215C134.845 100.282 132.635 100.828 130.469 101.523C130.319 101.572 130.257 101.751 130.347 101.881C130.782 102.507 131.182 103.235 131.569 104.073L137.183 116.517C139.745 122.092 139.764 124.377 130.402 125.894L130.404 125.893Z" fill="black"/>
<path d="M60.2832 125.888C60.1727 125.908 60.0898 126.005 60.0898 126.119V128.118C60.0898 128.247 60.1951 128.352 60.3246 128.352H86.4113C86.5408 128.352 86.646 128.247 86.646 128.118V126.134C86.646 126.015 86.5546 125.915 86.4355 125.901C78.237 124.968 74.678 122.228 77.2359 115.908L82.8506 103.008C84.2158 99.6696 87.7075 98.6064 91.5013 98.6064H111.1C111.157 98.6064 111.212 98.5857 111.255 98.5477C112.595 97.3534 114.031 96.2401 115.513 95.2494L115.52 95.2442C115.714 95.1147 115.622 94.8127 115.389 94.8127H90.136C87.7075 94.8127 86.9498 93.1436 88.0113 90.4114L105.463 49.2843C106.828 46.4036 107.738 46.4002 108.647 48.9754C108.647 48.9788 108.651 48.984 108.653 48.9874L126.127 90.0075C126.175 90.1214 126.303 90.1767 126.418 90.137C128.731 89.3464 131.101 88.7234 133.516 88.3264C134.511 88.1624 135.516 88.0209 136.527 87.8949C136.683 87.8759 136.776 87.7137 136.716 87.5704L113.577 33.5104C113.537 33.4155 113.439 33.3585 113.337 33.3689L106.283 34.0886C106.164 34.1007 106.074 34.2025 106.072 34.3216C106.043 37.0936 105.415 39.094 103.342 44.127L72.8381 116.365C69.8331 123.126 66.6797 124.681 60.2832 125.889V125.888Z" fill="black"/>
<path d="M264.21 93.4575C264.068 91.193 262.874 89.8122 260.58 89.9899C259.712 90.0486 258.868 90.2765 258.003 90.594C245.079 95.7134 243.727 108.777 243.349 121.258C242.36 120.873 241.665 119.915 241.062 118.705C237.669 111.893 233.746 103.805 225.532 104.782C225.526 104.782 225.52 104.782 225.514 104.785C224.893 104.925 223.364 105.084 223.745 105.961C224.016 106.359 224.605 106.672 225.05 106.932C226.937 107.992 228.678 109.24 230.283 110.638C232.434 112.507 234.357 114.663 236.09 116.955C238.033 119.537 239.978 122.066 241.114 125.06C241.116 125.067 241.119 125.073 241.121 125.079C245.457 139.169 240.261 153.805 235.437 167.258C234.602 168.923 233.865 170.62 232.957 172.244C232.696 172.192 232.429 172.165 232.153 172.165C229.895 172.165 228.064 173.996 228.064 176.254C228.064 177.096 228.319 177.879 228.756 178.53C227.675 179.966 226.471 181.302 225.128 182.5C225.116 182.51 225.104 182.522 225.092 182.533C223.445 184.05 221.508 185.885 219.938 187.476C219.801 187.614 219.542 187.464 219.542 187.271C219.549 186.387 219.47 184.4 217.789 183.441C215.794 182.302 212.79 183.159 211.976 185.648C211.974 185.655 211.97 185.662 211.967 185.669C210.01 189.775 214.073 192.663 212.077 194.824C212.072 194.829 211.052 195.714 211.047 195.718C200.884 203.234 190.635 204.865 181.7 206.365C165.719 209.048 142.14 204.793 121.442 184.547C128.166 187.69 135.847 189.344 144.047 189.344C155.43 189.344 162.258 186.308 169.392 186.308C172.573 186.308 174.092 186.912 176.058 187.82C176.065 187.823 176.071 187.826 176.078 187.832C177.29 188.581 178.496 188.125 178.345 186.763C177.889 182.818 177.889 177.507 177.889 173.711V162.936C177.889 151.95 179.083 148.724 187.244 147.635C187.361 147.619 187.449 147.519 187.449 147.402V145.263C187.449 145.134 187.344 145.029 187.214 145.029H154.45C154.32 145.029 154.215 145.134 154.215 145.263V147.391C154.215 147.514 154.31 147.616 154.433 147.626C166.074 148.562 167.873 151.927 167.873 162.938V173.409C167.873 182.514 161.499 185.246 152.392 185.246C126.594 185.246 105.651 162.938 105.651 133.951C105.651 109.67 119.916 95.7082 140.252 95.7082C158.311 95.7082 164.837 107.393 166.05 115.588C166.506 119.838 169.388 122.114 172.576 122.114C176.978 122.114 179.862 118.928 179.862 114.071C179.862 103.751 166.962 91.155 145.261 91.155C119.31 91.155 95.6348 109.214 95.6348 141.237C95.6348 156.551 101.141 168.702 110.088 176.963C110.125 177.032 110.164 177.096 110.207 177.155C140.274 217.545 188.801 218.202 214.791 196.57C214.81 196.555 214.832 196.541 214.855 196.532C215.978 196.087 217.269 196.624 218.225 197.142C222.288 199.615 228.079 195.514 225.735 191.316C224.322 188.784 222.073 189.829 221.741 189.585C221.564 189.454 221.469 189.249 221.626 189.092C222.066 188.65 222.872 187.844 223.322 187.412C224.669 186.128 228.764 182.338 228.764 182.338C229.479 181.537 229.75 181.24 230.458 180.327C230.523 180.242 230.592 180.153 230.663 180.061C231.126 180.242 231.628 180.342 232.156 180.342C234.414 180.342 236.245 178.511 236.245 176.254C236.245 175.216 235.858 174.269 235.221 173.547C235.574 172.997 235.889 172.486 236.147 172.04C243.28 159.739 245.358 144.54 247.357 130.366C247.692 128.255 248.173 126.122 248.957 124.142C250.105 120.941 252.219 118.207 254.169 115.412C254.596 114.817 254.95 114.118 255.212 113.374C256.334 111.845 257.447 110.312 258.555 108.781C261.679 104.626 264.339 98.5112 264.213 93.4558L264.21 93.4575Z" fill="black"/>
</g>
<defs>
<clipPath id="clip0_76_189">
<rect width="264.212" height="240" fill="white"/>
</clipPath>
</defs>
</svg>
